<?xml version="1.0" encoding="utf-8"?>
<!-- Generator: Adobe Illustrator 16.0.0, SVG Export Plug-In . SVG Version: 6.00 Build 0)  -->
<!DOCTYPE svg PUBLIC "-//W3C//DTD SVG 1.1//EN" "http://www.w3.org/Graphics/SVG/1.1/DTD/svg11.dtd">
<svg version="1.1" id="Layer_2" xmlns="http://www.w3.org/2000/svg" xmlns:xlink="http://www.w3.org/1999/xlink" x="0px" y="0px"
	 width="50px" height="50px" viewBox="0 0 50 50" enable-background="new 0 0 50 50" xml:space="preserve">
<g id="bricks">
	<polyline fill="#EFEAED" points="12.817,21.833 16.244,18.542 5.018,17.679 1.325,21.563 	"/>
	<polygon fill="#C1BCBF" points="0.711,28.497 12.711,28.739 12.711,21.833 0.711,21.563 	"/>
	<rect x="12.711" y="21.588" fill="#E0D1D9" width="21" height="7"/>
	<path fill="#FFFFFF" d="M33.859,28.82"/>
	<polygon fill="#C1BCBF" points="33.865,28.794 46.711,28.739 46.711,21.78 33.907,21.861 	"/>
	<polygon fill="#EFEAED" points="46.646,21.78 48.939,18.38 35.721,18.542 33.859,21.861 	"/>
	<polygon fill="#ADA8AC" points="46.518,28.739 48.711,25.287 48.711,18.38 46.495,21.78 	"/>
	<polygon fill="#C1BCBF" points="7.711,21.59 23.711,21.78 23.711,14.657 7.711,14.388 	"/>
	<polygon fill="#E0D1D9" points="23.711,14.588 42.682,14.588 42.613,21.588 23.711,21.588 	"/>
	<polygon fill="#EFEAED" points="7.314,14.626 13.222,10.588 28.6,10.588 23.986,15.146 	"/>
	<polygon fill="#EFEAED" points="42.682,14.588 45.596,10.003 28.6,9.931 23.986,14.588 	"/>
	<polyline fill="#ADA8AC" points="42.532,21.884 42.713,21.769 45.711,17.679 45.711,10.125 42.779,14.739 	"/>
	<polygon fill="#C1BCBF" points="14.841,14.334 15.002,8.507 37.34,8.949 37.016,14.82 	"/>
	<polygon fill="#ADA8AC" points="40.268,6.382 40.232,10.044 37.016,14.82 37.34,8.949 	"/>
	<polygon fill="#EFEAED" points="15.083,8.507 17.431,4.946 40.309,6.382 37.42,8.949 	"/>
</g>
<path fill="#808080" d="M11.549,16.167c0.162,0.164,0,4.534,0,4.534s10.575-0.108,10.359,0c-0.215,0.108,0.193-4.855,0.193-4.855
	L11.549,16.167z"/>
<path fill="#808080" d="M24.984,15.845c0.162,0,14.514,0.321,14.514,0.321s0.322,5.074,0,5.02
	c-0.324-0.054-14.671-0.884-14.671-0.884L24.984,15.845z"/>
<polygon fill="#808080" points="11.711,26.588 11.738,26.588 11.428,23.563 11.711,23.344 "/>
<polygon fill="#808080" points="15.124,27.121 14.76,23.938 21.967,24.277 22.29,27.083 "/>
<path fill="#808080" d="M23.824,27.337c-0.008,0.195-0.01,0.032,0.25-3.453l7.142,0.133l-0.271,3.776L23.824,27.337z"/>
<polygon fill="#808080" points="35.711,27.607 35.711,23.884 40.711,23.938 40.711,27.93 "/>
<polygon fill="#EFEAED" points="22.556,33.057 31.216,30.682 32.809,32.139 23.851,35.592 "/>
<path fill="#EB5094" d="M11.711,16.005c0.162,0.164,0,4.534,0,4.534s10.575-0.108,10.359,0c-0.216,0.108,0.193-4.856,0.193-4.856
	L11.711,16.005z"/>
<path fill="#EB5094" d="M25.146,15.683c0.162,0,14.513,0.322,14.513,0.322s0.323,5.074,0,5.02
	c-0.323-0.054-14.671-0.885-14.671-0.885L25.146,15.683z"/>
<path fill="#EB5094" d="M6.711,26.835c5-0.2,4.901-0.092,4.901-0.092l-0.454-3.183l-4.447-0.286V26.835z"/>
<polygon fill="#EB5094" points="15.286,26.959 14.922,23.776 22.128,24.115 22.452,26.921 "/>
<path fill="#EB5094" d="M23.986,27.175c-0.008,0.195-0.01,0.033,0.25-3.453l7.142,0.133l-0.271,3.777L23.986,27.175z"/>
<polygon fill="#EB5094" points="35.711,27.443 35.711,23.722 40.711,23.776 40.711,27.77 "/>
<line fill="none" stroke="#FFFB7B" stroke-width="0.5" stroke-miterlimit="10" x1="28.005" y1="7.266" x2="28.923" y2="1.384"/>
<circle fill="#FDF001" cx="28.922" cy="1.384" r="0.486"/>
<polygon fill="#E0D1D9" points="23.711,37.805 23.711,35.052 22.711,33.057 22.711,36.143 "/>
<polygon fill="#C1BCBF" points="23.711,37.805 32.711,35.052 32.711,32.139 23.711,35.052 "/>
</svg>
