<?xml version="1.0" encoding="utf-8"?>
<!-- Generator: Adobe Illustrator 16.0.0, SVG Export Plug-In . SVG Version: 6.00 Build 0)  -->
<!DOCTYPE svg PUBLIC "-//W3C//DTD SVG 1.1//EN" "http://www.w3.org/Graphics/SVG/1.1/DTD/svg11.dtd">
<svg version="1.1" id="Layer_1" xmlns="http://www.w3.org/2000/svg" xmlns:xlink="http://www.w3.org/1999/xlink" x="0px" y="0px"
	 width="50px" height="50px" viewBox="0 0 50 50" enable-background="new 0 0 50 50" xml:space="preserve">
<g id="book">
	<path fill="#1A1A1A" d="M19.07,36.588h30.506c0,0-19.286-28.557-19.462-28.498C29.939,8.147,1.275,9.594,1.275,9.594L19.07,36.588z
		"/>
	<polygon fill="#999999" points="19.07,30.588 49.576,30.588 30.814,2.588 1.141,2.588 	"/>
	<path fill="#E6E6E6" d="M19.089,36.204c0.034,0.118,29.366-0.346,29.366-0.346s-0.935-1.811-0.876-2.979
		c0.06-1.168,0.876-3.204,0.876-3.204l-29.53,0.355c0,0-0.642,2.33-0.57,2.919c0.073,0.59,0.719,2.966,0.719,2.966L19.089,36.204z"
		/>
	<line fill="none" stroke="#CCCCCC" stroke-miterlimit="10" x1="18.937" y1="35.402" x2="47.296" y2="34.961"/>
	<line fill="none" stroke="#CCCCCC" stroke-miterlimit="10" x1="18.696" y1="34.472" x2="45.857" y2="34.242"/>
	<line fill="none" stroke="#CCCCCC" stroke-miterlimit="10" x1="18.35" y1="33.523" x2="46.996" y2="33.404"/>
	<line fill="none" stroke="#CCCCCC" stroke-miterlimit="10" x1="18.331" y1="32.512" x2="46.996" y2="32.564"/>
	<line fill="none" stroke="#CCCCCC" stroke-miterlimit="10" x1="18.521" y1="31.685" x2="46.996" y2="31.786"/>
	<line fill="none" stroke="#CCCCCC" stroke-miterlimit="10" x1="18.696" y1="30.92" x2="46.996" y2="30.886"/>
	<path fill="#666666" d="M1.275,9.655l17.928,27.093c0.143,0-0.833-2.327-0.873-4.236c-0.035-1.671,0.873-2.967,0.873-2.967
		L1.275,3.205c0,0-0.991,1.721-0.991,3.029C0.284,7.541,1.275,9.655,1.275,9.655z"/>
</g>
<g id="shadow">
	<path fill="#808080" d="M9.484,10.542c0.211,0,2.957,5.695,2.957,5.695l10.336-0.781L22.67,12.88L19.53,8.843L9.484,10.542z"/>
	<polygon fill="#808080" points="24.622,8.029 25.162,12.322 26.906,14.691 35.479,14.409 32.41,7.866 	"/>
	<path fill="#808080" d="M16.646,21.639c0.233,0,5.432,6.484,5.607,6.368c0.175-0.117,4.206-0.644,4.206-0.644l-6.367-7.119
		L16.646,21.639z"/>
	<path fill="#808080" d="M25.158,24.126c0.25,0.025,11.406-0.851,11.406-0.851l2.22,2.278L27.277,27.13L25.158,24.126z"/>
	<path fill="#808080" d="M39.602,25.203l-2.921-6.776c0,0,1.694-0.643,2.103-0.584c0.409,0.059,5.258,7.36,5.258,7.36"/>
	<line fill="none" stroke="#808080" stroke-miterlimit="10" x1="20.855" y1="5.235" x2="19.218" y2="3.379"/>
</g>
<g id="cover">
	<path fill="#FFFB7B" d="M9.751,10.275c0.211,0,2.957,5.695,2.957,5.695l10.335-0.781l-0.106-2.576l-3.141-4.037L9.751,10.275z"/>
	<polygon fill="#FFFB7B" points="24.89,7.762 25.429,12.055 27.175,14.424 35.747,14.141 32.678,7.599 	"/>
	<path fill="#FFFB7B" d="M16.913,21.372c0.234,0,5.433,6.483,5.608,6.367s4.206-0.643,4.206-0.643l-6.367-7.119L16.913,21.372z"/>
	<path fill="#FFFB7B" d="M25.426,23.858c0.249,0.025,11.405-0.851,11.405-0.851l2.221,2.278l-11.507,1.577L25.426,23.858z"/>
	<path fill="#FFFB7B" d="M39.87,24.935l-2.921-6.776c0,0,1.693-0.643,2.103-0.584c0.408,0.059,5.257,7.36,5.257,7.36"/>
	<g>
		<line fill="#FFFB7B" stroke="#FFFB7B" stroke-miterlimit="10" x1="20.855" y1="5.235" x2="19.717" y2="1.524"/>
		<circle fill="#FFFB7B" cx="19.749" cy="1.555" r="0.529"/>
	</g>
</g>
</svg>
