<?xml version="1.0" encoding="utf-8"?>
<!-- Generator: Adobe Illustrator 16.0.0, SVG Export Plug-In . SVG Version: 6.00 Build 0)  -->
<!DOCTYPE svg PUBLIC "-//W3C//DTD SVG 1.1//EN" "http://www.w3.org/Graphics/SVG/1.1/DTD/svg11.dtd">
<svg version="1.1" id="robut" xmlns="http://www.w3.org/2000/svg" xmlns:xlink="http://www.w3.org/1999/xlink" x="0px" y="0px"
	 width="443.5px" height="531px" viewBox="0 0 443.5 531" enable-background="new 0 0 443.5 531" xml:space="preserve">
<g id="arm_1">
	<g id="Layer_5">
		<polygon fill="#F4E96C" points="15,271.85 44.026,259.557 42.666,249.156 		"/>
		<polygon fill="#EADCE5" points="176.043,150.026 74.168,112 111.51,87.447 216.857,111.779 		"/>
		<polygon fill="#B3B3B3" points="176.295,200.557 74,148.967 74.635,112.256 176.043,150.026 		"/>
		<polygon fill="#D8D4D6" points="34.333,231.097 74.168,112 123.021,130.113 65.25,246.725 		"/>
		<polygon fill="#ADA8AC" points="65.25,246.725 65.668,271 118.928,171.643 123.021,130.113 		"/>
		<polygon fill="#F4E96C" points="65.668,271.268 38.25,284.361 65.25,246.725 		"/>
		<polygon fill="#FDF001" points="38.25,284.361 42.666,249.156 46.606,237.288 65.25,246.725 		"/>
		<polygon fill="#B3B3B3" points="42.666,249.156 15,271.85 34.333,231.097 46.606,237.288 		"/>
	</g>
	<g id="Layer_7">
		<polygon fill="#FFFFFF" points="171.618,141.98 170.199,141.432 159.949,137.464 165.784,128.235 175.102,132.858 		"/>
		<path fill="#FFFFFF" d="M178.393,130.34l7.026-6.315l-11.251-6.315c0,0-8.854,6.138-6.643,6.315
			C169.736,124.202,178.393,130.34,178.393,130.34z"/>
		<polygon fill="#FFFFFF" points="187.605,120.186 178.393,115.315 185.419,108.393 195.824,112.256 		"/>
		<polyline fill="#FFFFFF" points="178.393,105.7 176.296,105.082 167.171,102.396 159.949,105.7 174.168,112.598 		"/>
		<polygon fill="#FFFFFF" points="171.242,115.315 169.347,114.29 158.444,108.393 152.799,114.289 164.843,120.186 		"/>
		<path fill="#FFFFFF" d="M164.057,123.085l-7.238,11.276c0,0-10.818-5.149-10.514-5.013c0.304,0.136,7.848-10.683,7.848-10.683
			l9.904,4.19"/>
		<polygon fill="#FFFFFF" points="139.066,130.34 127.027,125.372 133.961,115.924 144.491,120.495 		"/>
		<path fill="#FFFFFF" d="M146.298,118.667c-0.146-0.076-9.67-4.876-9.67-4.876l5.409-6.781l9.982,3.505L146.298,118.667z"/>
		<polygon fill="#FFFFFF" points="153.162,109.219 143.485,105.409 149.885,99.238 159.409,101.447 		"/>
		<path fill="#FFFFFF" d="M145.619,97.333c-0.381,0.076-11.125-3.429-11.125-3.429l-3.809,5.867l10.057,4.458L145.619,97.333z"/>
		<path fill="#FFFFFF" d="M139.904,105.485l-5.182,6.771l-8.152-4.759c0,0,2.592-4.678,2.82-4.602S139.904,105.485,139.904,105.485z
			"/>
		<path fill="#FFFFFF" d="M132.285,114.289c0.229,0.187-7.734,11.235-7.734,11.235l-12.686-6.4c0,0,6.096-9.371,6.324-9.295
			c0.228,0.076,13.791,4.46,13.791,4.46"/>
		<polygon fill="#FFFFFF" points="107.219,119.81 98.913,116.686 105.618,108.393 113.161,109.219 		"/>
		<path fill="#FFFFFF" d="M120.247,108.393c0,0-11.581-3.06-11.276-3.136c0.305-0.076,8.533-6.19,8.533-6.19l9.066,2.838
			L120.247,108.393z"/>
		<polygon fill="#FFFFFF" points="128.019,100.152 118.875,97.638 123.447,92.076 132.29,93.904 		"/>
		<polygon fill="#FFFFFF" points="117.275,92.457 117.045,92.357 112.476,90.399 102.113,97.638 109.695,101.295 		"/>
		<polygon fill="#FFFFFF" points="106.037,103.729 95.637,115.085 81.618,111.5 99.523,100.152 		"/>
		<polygon fill="#FFFFFF" points="173,151.5 172,164.528 161.5,159.875 162.02,149.286 		"/>
		<polygon fill="#FFFFFF" points="172,168 172,178 161.5,171.946 162.02,162.875 		"/>
		<path fill="#FFFFFF" d="M172,185.5l-0.758,9.5c0,0-14.367-7.555-13.992-8.027c0.375-0.472,1.774-8.973,2.699-8.973
			C160.875,178,172,185.5,172,185.5z"/>
		<polygon fill="#FFFFFF" points="155.178,185.875 143.485,179.362 145.619,169.32 157.75,175.125 		"/>
		<polygon fill="#FFFFFF" points="157.75,171.946 147.75,167.197 149.5,160 158.375,162.875 		"/>
		<path fill="#FFFFFF" d="M159.409,160l0.54-10.754l-9.332-4.871c0,0-3.992,11.201-3.617,11.351S159.409,160,159.409,160z"/>
		<path fill="#FFFFFF" d="M146.298,141.98c0.202,0.77-0.869,13.745-0.869,13.745l-7.804-1.476l2.279-14.375L146.298,141.98z"/>
		<path fill="#FFFFFF" d="M144.323,160c0,0-4.515,17.75-4.419,18c0.096,0.25-5.654-4.24-5.654-4.24l3.375-15.922L144.323,160z"/>
		<polygon fill="#FFFFFF" points="135.612,146.404 125,141.528 125,135 136.628,138.5 		"/>
		<polygon fill="#FFFFFF" points="135.76,150.026 125,145.125 123.625,152.875 133.75,157.838 		"/>
		<path fill="#FFFFFF" d="M134.25,160.724c0-0.224-1.96,11.901-1.96,11.901l-9.269-4.701l1.104-11.017L134.25,160.724z"/>
		<path fill="#FFFFFF" d="M75.125,124.875C74.408,125.369,67.5,147.8,67.5,147.8l7.625,4.387L86,130.34L75.125,124.875z"/>
		<polygon fill="#FFFFFF" points="92.125,130.113 79.5,153 88.751,156.406 101.5,133.625 		"/>
		<polygon fill="#FFFFFF" points="107.25,135.107 95.25,156.907 103.25,157.838 114.125,139.25 		"/>
		<polygon fill="#FFFFFF" points="64.75,155.726 56.125,176.375 64.75,180.875 74,161.125 		"/>
		<path fill="#FFFFFF" d="M77.375,160c-0.125,0.875-8.875,18-8.875,18l7.125,3.625L86,162.25L77.375,160z"/>
		<polygon fill="#FFFFFF" points="93.5,162.875 79.5,185.125 89.25,187.125 99.375,163.5 		"/>
		<polygon fill="#FFFFFF" points="77.25,191.625 70.875,206 78,208.625 86,192.875 		"/>
		<path fill="#FFFFFF" d="M73.125,189.75c0,0-9.375,17-9,16.75s-5.625-4.25-5.625-4.25l7.312-17.5l6.438,4.625L73.125,189.75z"/>
		<path fill="#FFFFFF" d="M62.625,184.75c0,0-7.625,15-7.75,15.375s-7-3-7-3l7.375-18.25L62.625,184.75z"/>
		<path fill="#FFFFFF" d="M47.125,205.5c0,0-8.5,17.375-8.125,17.625s7.606,7.375,7.606,7.375l6.894-20.75L47.125,205.5z"/>
		<path fill="#FFFFFF" d="M58.5,209.625c0,0-7.75,17.125-7.75,17.625s8.5,5,8.5,5l7.625-17.5l-8.375-5.625"/>
		<path fill="#FFFFFF" d="M68.5,218c0.375,0-8.5,18-8.5,18l5.812,4.25L76.125,218H68.5z"/>
		<path fill="#FFFFFF" d="M116,152.188l-8.5,14.938c0,0,2.125,3.125,2.5,3.688s7-9.312,7-9.312L116,152.188z"/>
		<polygon fill="#FFFFFF" points="114.75,168.3 106,181.625 109,184.75 117.316,170.812 		"/>
		<path fill="#FFFFFF" d="M105.375,178.875L96,195c0,0-4.25-0.75-3.875-1s9.375-17.475,9.375-17.475l3.188,2.35"/>
		<path fill="#FFFFFF" d="M104.688,184.75c0,0-8.688,12.875-8.438,13.25s3.125,4.875,3.125,4.875l8.125-14.25l-2.812-4.375"/>
		<polygon fill="#FFFFFF" points="95.25,210.091 89.438,222.25 83.25,216.17 89.438,202.875 		"/>
		<path fill="#FFFFFF" d="M86,229.75c-0.5,0.25-9.875,16.375-9.875,16.375l-7.625-3.5l12-18.875L86,229.75z"/>
	</g>
</g>
<g id="main">
	<g id="Layer_2">
		<polygon fill="#E0D1D9" points="280.873,192.519 175,141.528 175,502 281.082,530.837 		"/>
		<polygon fill="#C1BCBF" points="338,134.691 280.604,192.519 281,531 338,466.686 		"/>
		<polygon fill="#E6E6E6" points="174.168,141.528 238.168,82.409 338,134.691 280.605,193.019 		"/>
		<path fill="#B3B3B3" d="M281,531"/>
	</g>
	<g id="Layer_1">
		<polygon fill="#EB5094" points="182.503,152.127 189.182,155.127 189.148,169.32 182.47,166.223 		"/>
		<polygon fill="#EB5094" points="195.859,157.838 202.541,160.076 202.502,176.557 195.824,173.001 		"/>
		<polygon fill="#EB5094" points="211.08,165.699 218.758,168.021 218.713,186.973 211.041,182.143 209.861,164.528 		"/>
		<polygon fill="#EB5094" points="182.457,171.946 182.419,187.945 189.096,191.311 189.137,174.352 		"/>
		<polygon fill="#EB5094" points="196.746,187.129 203.426,189.401 203.38,209.016 196.703,205.375 		"/>
		<polygon fill="#FFFFFF" points="208.213,184.795 219.654,192.552 219.613,210.174 208.166,204.49 		"/>
		<path fill="#FFFFFF" d="M182.875,200.421c1.07,0.704,10.01,3.884,10.01,3.884l-0.047,19.916l-10.512-4.955L182.875,200.421z"/>
		<polygon fill="#FFFFFF" points="197.647,210.118 205.281,213.23 205.238,231.361 197.607,227.392 		"/>
		<polygon fill="#EB5094" points="210.059,211.797 219.598,217.005 219.549,237.66 210.011,232.346 		"/>
		<path fill="#EB5094" d="M182.893,226.906l6.115,2.053c0.953,0.898-0.033,13.805-0.033,13.805l-6.578-2.309L182.893,226.906z"/>
		<polygon fill="#EB5094" points="192.826,229.18 200.457,233.293 200.423,247.973 192.791,244.404 		"/>
		<polygon fill="#EB5094" points="203.308,239.796 210.939,243.222 210.906,257.752 203.27,255.859 		"/>
		<path fill="#EB5094" d="M214.777,244.366l6.66,2.071l-0.035,15.405c0,0-7.889-3.923-7.285-3.661
			C214.72,258.443,214.777,244.366,214.777,244.366z"/>
		<path fill="#FFFFFF" d="M183.033,251.318c1.1,0.73,8.779,2.862,8.779,2.862l-0.037,15.981l-8.951-2.448L183.033,251.318z"/>
		<polygon fill="#FFFFFF" points="196.586,256.388 204.215,259.977 204.18,274.785 196.213,273.218 		"/>
		<path fill="#FFFFFF" d="M211.229,265.068l10.154,4.334l-0.042,17.763c0,0-11.849-6.657-10.516-5.401
			S211.229,265.068,211.229,265.068z"/>
		<path fill="#EB5094" d="M182.969,278.447c0.674,0.635,8.785,1.156,8.785,1.156l-0.033,13.904l-8.953-1.896L182.969,278.447z"/>
		<path fill="#EB5094" d="M195.565,282.881l8.589,2.881l-0.032,13.754c0,0-9.54-4.133-8.588-3.234
			C196.487,297.178,195.565,282.881,195.565,282.881z"/>
		<polygon fill="#EB5094" points="211.784,290.398 221.322,295.715 221.289,309.445 211.748,305.945 		"/>
		<polygon fill="#FFFFFF" points="233.059,178.776 239.736,181.777 239.703,195.969 233.025,192.873 		"/>
		<polygon fill="#EB5094" points="246.4,190.77 253.081,193.008 253.042,209.49 246.365,205.933 		"/>
		<polygon fill="#FFFFFF" points="258.775,189.655 266.453,191.978 266.409,210.929 258.736,206.099 257.557,188.484 		"/>
		<polygon fill="#FFFFFF" points="233.012,198.596 232.975,214.595 239.65,217.959 239.691,201.002 		"/>
		<polygon fill="#EB5094" points="247.301,214.164 253.98,216.437 253.934,236.051 247.258,232.41 		"/>
		<polygon fill="#FFFFFF" points="257.816,209.498 269.26,217.256 269.218,234.879 257.771,229.195 		"/>
		<path fill="#EB5094" d="M233.443,221.836c1.07,0.703,10.01,3.885,10.01,3.885l-0.047,19.914l-10.512-4.954L233.443,221.836z"/>
		<polygon fill="#EB5094" points="260.617,237.398 270.154,242.607 270.105,263.264 260.568,257.947 		"/>
		<path fill="#EB5094" d="M235.355,254.305l6.115,2.053c0.952,0.898-0.033,13.805-0.033,13.805l-6.576-2.31L235.355,254.305z"/>
		<polygon fill="#FFFFFF" points="248.199,238.01 255.83,242.122 255.796,256.802 248.164,253.233 		"/>
		<polygon fill="#EB5094" points="248.148,259.949 255.779,263.375 255.746,277.904 248.109,276.012 		"/>
		<path fill="#EB5094" d="M262.473,269.369l6.659,2.07l-0.036,15.406c0,0-7.888-3.925-7.285-3.662
			C262.414,283.445,262.473,269.369,262.473,269.369z"/>
		<path fill="#EB5094" d="M233.588,277.969c1.1,0.729,8.78,2.861,8.78,2.861l-0.038,15.98l-8.951-2.447L233.588,277.969z"/>
		<polygon fill="#FFFFFF" points="248.105,279.168 255.734,282.758 255.699,297.564 247.732,295.998 		"/>
		<path fill="#EB5094" d="M261.785,291.718l10.154,4.335l-0.043,17.763c0,0-11.849-6.657-10.517-5.401
			C262.714,309.669,261.785,291.718,261.785,291.718z"/>
		<path fill="#FFFFFF" d="M233.525,305.098c0.672,0.633,8.783,1.155,8.783,1.155l-0.033,13.905l-8.953-1.896L233.525,305.098z"/>
		<path fill="#FFFFFF" d="M246.116,311.431l8.589,2.882l-0.032,13.755c0,0-9.541-4.134-8.588-3.235S246.116,311.431,246.116,311.431
			z"/>
		<polygon fill="#FFFFFF" points="258.527,313.456 268.064,318.772 268.033,332.503 258.49,329.003 		"/>
		<polygon fill="#EB5094" points="182.154,300.096 188.832,303.096 188.799,317.289 182.121,314.191 		"/>
		<polygon fill="#EB5094" points="195.504,309.28 202.184,311.518 202.145,328 195.468,324.443 		"/>
		<polygon fill="#FFFFFF" points="209.779,312.473 217.457,314.794 217.412,333.745 209.74,328.915 208.56,311.301 		"/>
		<polygon fill="#FFFFFF" points="182.098,324.103 182.061,340.103 188.738,343.467 188.777,326.51 		"/>
		<polygon fill="#FFFFFF" points="195.453,330.344 202.135,332.615 202.088,352.23 195.41,348.591 		"/>
		<polygon fill="#EB5094" points="207.861,333.982 219.304,341.739 219.262,359.361 207.814,353.678 		"/>
		<path fill="#EB5094" d="M182.527,348.39c1.07,0.704,10.01,3.885,10.01,3.885l-0.047,19.916l-10.512-4.955L182.527,348.39z"/>
		<polygon fill="#EB5094" points="197.303,356.325 204.936,359.438 204.894,377.568 197.262,373.599 		"/>
		<polygon fill="#EB5094" points="209.709,360.514 219.247,365.722 219.198,386.378 209.66,381.062 		"/>
		<path fill="#FFFFFF" d="M182.545,374.875l6.113,2.053c0.953,0.898-0.031,13.806-0.031,13.806l-6.578-2.31L182.545,374.875z"/>
		<polygon fill="#FFFFFF" points="192.479,377.076 200.109,381.189 200.074,395.869 192.442,392.301 		"/>
		<polygon fill="#FFFFFF" points="204.871,387.133 212.504,390.56 212.469,405.089 204.833,403.196 		"/>
		<path fill="#FFFFFF" d="M217.294,392.637l6.66,2.07l-0.036,15.406c0,0-7.888-3.924-7.285-3.662
			C217.236,406.713,217.294,392.637,217.294,392.637z"/>
		<path fill="#FFFFFF" d="M182.686,399.287c1.099,0.729,8.779,2.862,8.779,2.862l-0.037,15.98l-8.953-2.448L182.686,399.287z"/>
		<polygon fill="#FFFFFF" points="196.236,404.688 203.865,408.277 203.831,423.086 195.863,421.519 		"/>
		<path fill="#FFFFFF" d="M210.879,413.785l10.154,4.335l-0.041,17.763c0,0-11.85-6.657-10.517-5.399
			C211.809,431.737,210.879,413.785,210.879,413.785z"/>
		<path fill="#FFFFFF" d="M182.621,426.416c0.673,0.635,8.783,1.156,8.783,1.156l-0.032,13.904l-8.954-1.896L182.621,426.416z"/>
		<path fill="#FFFFFF" d="M195.217,431.182l8.588,2.882l-0.031,13.756c0,0-9.541-4.136-8.589-3.236
			C196.138,445.48,195.217,431.182,195.217,431.182z"/>
		<polygon fill="#FFFFFF" points="207.621,435.525 217.16,440.84 217.128,454.57 207.585,451.07 		"/>
		<polygon fill="#EB5094" points="232.71,326.745 239.389,329.746 239.354,343.938 232.677,340.842 		"/>
		<polygon fill="#EB5094" points="246.07,330.888 252.751,333.127 252.712,349.607 246.035,346.051 		"/>
		<polygon fill="#EB5094" points="258.426,338.373 266.104,340.694 266.059,359.646 258.387,354.816 257.207,337.201 		"/>
		<polygon fill="#EB5094" points="232.656,349.706 232.618,365.705 239.295,369.068 239.336,352.111 		"/>
		<polygon fill="#EB5094" points="246.951,362.658 253.631,364.931 253.584,384.545 246.908,380.906 		"/>
		<polygon fill="#FFFFFF" points="258.416,360.632 269.859,368.39 269.816,386.012 258.369,380.327 		"/>
		<polygon fill="#FFFFFF" points="234.502,376.604 242.135,379.715 242.093,397.847 234.461,393.877 		"/>
		<polygon fill="#EB5094" points="260.264,387.163 269.803,392.371 269.754,413.027 260.216,407.712 		"/>
		<path fill="#EB5094" d="M235.958,404.219l6.114,2.055c0.953,0.896-0.031,13.804-0.031,13.804l-6.578-2.309L235.958,404.219z"/>
		<polygon fill="#EB5094" points="245.873,414.536 253.504,418.648 253.471,433.328 245.838,429.76 		"/>
		<polygon fill="#FFFFFF" points="247.848,387.502 255.48,390.928 255.445,405.458 247.811,403.564 		"/>
		<path fill="#EB5094" d="M264.982,419.732l6.66,2.07l-0.037,15.405c0,0-7.888-3.924-7.283-3.662
			C264.924,433.81,264.982,419.732,264.982,419.732z"/>
		<path fill="#FFFFFF" d="M233.24,425.938c1.1,0.729,8.779,2.861,8.779,2.861l-0.037,15.981l-8.952-2.448L233.24,425.938z"/>
		<polygon fill="#FFFFFF" points="246.783,435.142 254.412,438.73 254.377,453.539 246.41,451.971 		"/>
		<path fill="#FFFFFF" d="M261.436,440.436l10.153,4.334l-0.042,17.764c0,0-11.85-6.657-10.516-5.401
			C262.363,458.387,261.436,440.436,261.436,440.436z"/>
		<path fill="#FFFFFF" d="M233.176,453.066c0.674,0.633,8.784,1.154,8.784,1.154l-0.032,13.905l-8.953-1.896L233.176,453.066z"/>
		<path fill="#FFFFFF" d="M245.771,457.831l8.588,2.882l-0.031,13.754c0,0-9.541-4.133-8.588-3.234
			C246.693,472.13,245.771,457.831,245.771,457.831z"/>
		<polygon fill="#FFFFFF" points="258.177,462.174 267.715,467.489 267.684,481.22 258.141,477.72 		"/>
		<g>
			<g>
				<polygon fill="#EB5094" points="289.203,275.514 296.036,270.195 296.01,280.208 289.174,285.456 				"/>
				<polygon fill="#EB5094" points="302.871,264.677 309.707,258.82 309.676,270.447 302.841,275.373 				"/>
				<polygon fill="#EB5094" points="318.445,253.279 326.303,246.375 326.268,259.744 318.413,264.879 317.2,253.811 				"/>
				<polygon fill="#EB5094" points="289.162,289.493 289.132,300.781 295.966,295.723 296.001,283.758 				"/>
				<polygon fill="#FFFFFF" points="303.791,284.277 310.627,278.448 310.587,292.285 303.756,297.148 				"/>
				<polygon fill="#FFFFFF" points="315.521,269.889 327.23,262.619 327.199,275.05 315.482,283.783 				"/>
				<path fill="#EB5094" d="M289.605,309.042c1.096-0.695,10.244-8.399,10.244-8.399l-0.041,14.051l-10.759,8.205L289.605,309.042z"
					/>
				<polygon fill="#EB5094" points="304.725,299.434 312.536,293.133 312.501,305.925 304.691,311.618 				"/>
				<polygon fill="#EB5094" points="317.422,286.814 327.186,279.869 327.145,294.439 317.383,301.311 				"/>
			</g>
			<g>
				<path fill="#EB5094" d="M289.636,334.861l6.257-5.357c0.976-0.429-0.025,9.739-0.025,9.739l-6.732,5.69L289.636,334.861z"/>
				<polygon fill="#EB5094" points="299.8,325.414 307.607,319.821 307.581,330.177 299.771,336.153 				"/>
				<polygon fill="#EB5094" points="310.529,319.222 318.34,313.145 318.312,323.395 310.497,330.555 				"/>
				<path fill="#EB5094" d="M322.268,311.682l6.813-5.949l-0.028,10.866c0,0-8.072,6.015-7.455,5.527
					C322.214,321.639,322.268,311.682,322.268,311.682z"/>
				<path fill="#EB5094" d="M289.791,351.862c1.125-0.709,8.982-7.749,8.982-7.749l-0.028,11.272l-9.161,8.23L289.791,351.862z"/>
				<polygon fill="#FFFFFF" points="303.66,340.356 311.465,334.397 311.438,344.845 303.285,352.601 				"/>
				<polygon fill="#EB5094" points="318.645,330.177 329.038,321.934 329.004,334.465 318.242,342.359 				"/>
				<path fill="#EB5094" d="M289.736,371.002c0.69-0.304,8.99-8.956,8.99-8.956l-0.028,9.812l-9.161,8.623L289.736,371.002z"/>
				<polygon fill="#EB5094" points="302.627,360.112 311.416,352.588 311.391,362.29 302.604,369.565 				"/>
				<polygon fill="#EB5094" points="319.227,347.364 328.986,340.495 328.957,350.183 319.195,358.33 				"/>
			</g>
			<g>
				<polygon fill="#EB5094" points="288.914,390.011 295.747,384.695 295.721,394.709 288.887,399.956 				"/>
				<polygon fill="#FFFFFF" points="311.549,382.069 318.383,376.215 318.352,387.843 311.52,392.767 				"/>
				<polygon fill="#FFFFFF" points="288.549,255.069 295.383,249.215 295.352,260.843 288.52,265.767 				"/>
				<polygon fill="#EB5094" points="330.398,362.658 331.727,373.322 322.134,378.151 322.076,367.393 				"/>
				<polygon fill="#EB5094" points="288.866,406.948 288.838,418.234 295.671,413.175 295.704,401.213 				"/>
				<polygon fill="#EB5094" points="299.546,396.486 306.384,390.653 306.346,404.491 299.509,409.358 				"/>
				<polygon fill="#EB5094" points="321.583,383.451 331.926,376.532 331.891,388.965 321.544,397.347 				"/>
				<path fill="#EB5094" d="M289.316,423.54c1.097-0.694,8.035-5.232,8.035-5.232l-0.035,14.05l-8.551,5.04L289.316,423.54z"/>
				<polygon fill="#EB5094" points="310.418,401.856 318.255,395.557 318.221,408.348 310.383,414.043 				"/>
				<polygon fill="#EB5094" points="322.117,400.396 331.878,393.452 331.837,408.023 322.076,414.893 				"/>
			</g>
			<g>
				<path fill="#EB5094" d="M289.35,449.359l6.256-5.355c0.977-0.427-0.025,9.738-0.025,9.738l-6.73,5.69L289.35,449.359z"/>
				<polygon fill="#EB5094" points="299.514,439.861 307.322,434.268 307.295,444.625 299.484,450.602 				"/>
				<polygon fill="#EB5094" points="312.197,432.429 320.009,426.352 319.979,436.602 312.165,443.762 				"/>
				<polygon fill="#EB5094" points="290.277,499.599 298.089,493.521 298.059,503.771 290.245,512.018 				"/>
				<path fill="#EB5094" d="M324.909,423.207l6.815-5.949l-0.027,10.868c0,0-8.072,6.012-7.457,5.525
					C324.857,433.165,324.909,423.207,324.909,423.207z"/>
				<path fill="#EB5094" d="M289.503,466.36c1.124-0.708,8.985-7.749,8.985-7.749l-0.031,11.272l-9.162,8.233L289.503,466.36z"/>
				<polygon fill="#FFFFFF" points="303.371,455.091 311.18,449.131 311.15,459.576 302.998,467.334 				"/>
				<polygon fill="#FFFFFF" points="318.355,445.205 328.748,436.961 328.714,449.492 317.952,457.388 				"/>
				<path fill="#EB5094" d="M289.452,485.5c0.687-0.302,8.983-8.953,8.983-8.953l-0.024,9.811l-9.162,8.621L289.452,485.5z"/>
				<polygon fill="#EB5094" points="302.341,474.844 311.127,467.321 311.104,477.024 302.312,484.299 				"/>
				<polygon fill="#EB5094" points="316.029,464.106 325.793,457.235 325.766,466.922 315.999,475.072 				"/>
			</g>
		</g>
		<path fill="#FFFFFF" d="M249,522v-45c-1,0-24-10.314-24-10.314V516L249,522z"/>
		<polygon fill="#FFFFFF" points="201,455.994 225,466.686 225,516 201,508.914 		"/>
		<line fill="none" stroke="#333333" stroke-miterlimit="10" x1="224.5" y1="467" x2="224.5" y2="516"/>
	</g>
</g>
<g id="head">
	<g id="Layer_3">
		<polygon fill="#E2D9DF" points="274.838,178.548 281.152,120.687 248.215,102.091 209.213,90.409 199.168,145.464 		"/>
		<polygon fill="#C1BCBF" points="321,140.094 274.648,178.459 281.17,120.598 321,90.409 		"/>
		<polygon fill="#E8E2E6" points="253.168,59.591 209.213,90.409 208.426,94.723 247.355,103.732 280.809,123.804 321,90.409 		"/>
		<polygon fill="#FDF001" points="274.525,106.969 224.168,87.893 266.003,45.126 		"/>
		<path fill="#F4E96C" d="M302.334,88.667c0.33,0-36.331-43.541-36.331-43.541l8.522,61.843L302.334,88.667z"/>
		<line fill="none" stroke="#EB5094" stroke-miterlimit="10" x1="266.168" y1="13.679" x2="266.003" y2="45.126"/>
		<polygon fill="#F4E96C" points="314.564,110.396 315.604,128.64 305,136.235 305,117 		"/>
	</g>
	<g id="Layer_4">
		<polygon fill="#FFFFFF" points="274.525,125.709 270.484,142.691 245.232,132.024 249.348,111.844 		"/>
		<polygon fill="#FFFFFF" points="240.357,108.976 215.4,101.173 210.486,120.598 232.152,127.268 		"/>
		<polygon fill="#FFFFFF" points="271.998,154.067 270.635,163.726 258.668,162.116 260.668,150.847 		"/>
		<polygon fill="#FFFFFF" points="256.271,153.571 253.422,164.964 238.439,159.268 241.41,149.528 		"/>
		<path fill="#FFFFFF" d="M236.953,147.008c-0.372,0.124-11.021-4.317-11.021-4.317l-2.477,8.898l10.896,4.582L236.953,147.008z"/>
		<path fill="#FFFFFF" d="M222.465,140.816c-0.372,0-9.288-3.467-9.288-3.467l-1.733,8.916l9.356,3.715L222.465,140.816z"/>
		<polygon fill="#FFFFFF" points="210.486,138.34 213.053,128.805 206.366,125.709 204.261,136.606 		"/>
	</g>
</g>
<g id="arm2">
	<g id="Layer_8">
		<polygon fill="#B3B3B3" points="290.5,194.281 392.5,238.192 404.5,276 292.277,244.366 		"/>
		<polygon fill="#E6E6E6" points="290.5,194.281 327.955,165.973 417.946,206.321 392.5,238.192 		"/>
	</g>
	<g id="Layer_9">
		<polygon fill="#FFFFFF" points="298.375,192.519 299.109,191.81 304.611,186.5 311.812,191.81 308.477,197.76 		"/>
		<polygon fill="#FFFFFF" points="308.477,183.622 315.168,178 322.15,184.256 317.607,190.79 		"/>
		<polygon fill="#FFFFFF" points="320.55,176.261 327.482,169.32 332.201,176.261 325.45,181.828 		"/>
		<polygon fill="#FFFFFF" points="337.168,174.396 347.5,178 339.334,186.973 330.922,181.628 		"/>
		<polygon fill="#FFFFFF" points="327.482,183.622 337.168,188.484 330.922,195 323.504,190.667 		"/>
		<polygon fill="#FFFFFF" points="318.215,192.519 326.609,199.707 320.391,202.875 314.277,199.707 		"/>
		<polygon fill="#FFFFFF" points="328.214,206.362 337.168,196.024 347.5,200.421 339.211,210.929 		"/>
		<polygon fill="#FFFFFF" points="339.211,191.81 349,179.331 358,184.395 350.365,198.072 		"/>
		<polygon fill="#FFFFFF" points="344,210.531 356,217.125 358,206.362 350.365,202.875 		"/>
		<polygon fill="#FFFFFF" points="354.223,198.514 365.334,203.477 370,194.281 359.667,190.79 		"/>
		<polygon fill="#FDF001" points="294.77,202.156 294.646,214 300,214 301.629,202.875 		"/>
		<polygon fill="#FDF001" points="302.332,210.858 301.509,221.188 306,221 307.366,211.321 		"/>
		<polygon fill="#FDF001" points="294.646,218.473 294.311,229.838 299.211,228.907 300,216.375 		"/>
		<polygon fill="#FDF001" points="294.253,232.728 298.419,231.76 298.375,241.305 294.341,241.063 		"/>
		<polygon fill="#FDF001" points="309.018,219.676 307.796,230.361 311.714,231 313.02,219.877 		"/>
		<polygon fill="#FDF001" points="312.65,232.821 311.812,245.625 316,246.635 317.607,230.18 312.734,230.838 		"/>
		<path fill="#FDF001" d="M315.168,225.107c0,0,0.377-14.583,1.271-14.179c0.894,0.404,4.896,0.868,4.896,0.868l-1.354,12.867
			L315.168,225.107z"/>
		<polygon fill="#FDF001" points="330.45,217 328.214,230.18 331.609,230.726 335.291,218.014 		"/>
		<polygon fill="#FDF001" points="333.732,229.852 332.162,239.468 335.766,239.879 338.279,229.494 		"/>
		<polygon fill="#FDF001" points="330.098,241.305 328.827,250.636 331.967,250.975 334.887,242.531 		"/>
		<polygon fill="#FDF001" points="339.109,234.687 341.768,221.441 347.667,223.8 344.211,235.361 		"/>
		<path fill="#FFFFFF" d="M301,233.735c1-0.068,9.123,1.626,9.123,1.626l-0.417,9.264L301,241.882V233.735z"/>
		<polygon fill="#FFFFFF" points="323.504,212.702 321.335,230.579 324.648,231.448 328.214,214.184 		"/>
		<polygon fill="#FFFFFF" points="319.979,234.687 325.45,235.361 322.715,247.406 318.252,246.14 		"/>
		<polygon fill="#FFFFFF" points="338.109,239.179 334.291,249.598 338.109,250.975 342.389,239.924 		"/>
		<polygon fill="#FFFFFF" points="344,243.946 351,246.14 347.5,254.305 341,251.318 		"/>
		<path fill="#FFFFFF" d="M346,239.067c1.334,1.007,5,3.371,5,3.371l3.223-7.559l-6.556-4.153L346,239.067z"/>
		<polygon fill="#FFFFFF" points="349.111,226.37 354.223,228.907 355.667,224.221 350.365,221.836 		"/>
	</g>
	<g id="Layer_10">
		<polygon fill="#EFEAED" points="350.365,260.74 377,140.125 425,151.964 404.5,277 		"/>
		<polygon fill="#ADA8AC" points="424.5,150.987 443.5,127.98 438.5,258 404.5,277 		"/>
		<polygon fill="#E6E6E6" points="394,114.186 443.5,127.98 425,151.964 377,140.125 		"/>
	</g>
	<g id="Layer_11">
		<polygon fill="#FDF001" points="361.834,227.726 358,238.273 362.111,239.917 365.667,230 		"/>
		<polygon fill="#FDF001" points="367.833,232.824 380,236.051 380,229.18 370,225.107 		"/>
		<polygon fill="#FDF001" points="358,241.875 354.223,255.56 358.834,256 362,242.812 		"/>
		<polygon fill="#FDF001" points="363.271,254.053 377.167,257.752 374.927,264.124 361.271,259.434 		"/>
		<polygon fill="#FFFFFF" points="366.59,237.005 364.424,249.938 377,253.73 380,239.796 		"/>
		<polygon fill="#FFFFFF" points="385.667,232 383.5,242.764 390.188,244.366 392.334,234.687 		"/>
		<polygon fill="#FFFFFF" points="383,245.564 387.917,247.973 385.459,255.255 380,253.73 		"/>
		<path fill="#FFFFFF" d="M380,257.908c1,0.092,5.334,2.041,5.334,2.041s-1.334,4.489-2.667,5.77
			C381.334,267,377,265.068,377,265.068L380,257.908z"/>
		<path fill="#FFFFFF" d="M390.188,259.949c1.479,0.384,10.39,3.688,10.39,3.688l-1.909,8.488l-10.75-4.499L390.188,259.949z"/>
		<path fill="#FFFFFF" d="M392.334,252.875c0,0.125,8.242,2.38,8.242,2.38l3.924-14.281l-7.938-3.313L392.334,252.875z"/>
		<polygon fill="#FFFFFF" points="404.5,231.361 410.125,210.531 400.576,207.994 396.562,228.907 		"/>
		<path fill="#FFFFFF" d="M392.334,225.777l4.541-21.026l-11.541-1.274c0,0-6.334,20.819-5.334,20.005
			S392.334,225.777,392.334,225.777z"/>
		<path fill="#FFFFFF" d="M377,220.74l4.167-17.263l-10.698-2.92c0,0-5.469,16.097-4.802,16.604
			C366.334,217.668,377,220.74,377,220.74z"/>
		<path fill="#FFFFFF" d="M370,194.281c0,0,6.333,2.749,7,2.734c0.667-0.015,3-10.913,3-10.913l-6.262,0.398L370,194.281z"/>
		<polygon fill="#FFFFFF" points="381.167,198.072 385.334,186.973 392.836,188.484 390.188,200.557 		"/>
		<polygon fill="#FFFFFF" points="396.562,201.99 400.576,188.702 404.5,191.558 403.344,203.477 		"/>
		<polygon fill="#FFFFFF" points="406.667,203.601 410.125,195.062 413.607,196.024 413,205 		"/>
		<polygon fill="#FFFFFF" points="408.097,186.973 410.125,176 417.946,176 414.019,190.471 		"/>
		<polygon fill="#FFFFFF" points="404.377,175.729 403.159,186.102 391.23,181.628 394,170.438 		"/>
		<polygon fill="#FFFFFF" points="388.384,167.924 385.334,180.684 375,177.598 377.167,167.197 		"/>
		<polygon fill="#FFFFFF" points="376.314,160.153 391.001,163 393.699,152.188 379.691,144.847 		"/>
		<polygon fill="#FFFFFF" points="398.417,152.188 395.591,163 406.667,165.973 409.834,154 		"/>
		<polygon fill="#FFFFFF" points="413,154.333 410.766,165.904 417.946,165.973 418.779,155.726 		"/>
		<polygon fill="#FFFFFF" points="425,155.726 430.334,150.026 432,162.399 424,167.847 		"/>
		<polygon fill="#FFFFFF" points="433.642,146.491 439,137.464 439,157 433.976,161.512 		"/>
		<polygon fill="#FFFFFF" points="434,167 434,179 439,177.598 439,163 		"/>
		<polygon fill="#FFFFFF" points="430,167 430,179 422.334,181.628 424,171 		"/>
		<polygon fill="#FFFFFF" points="422.334,186.102 418.779,197.697 428,196.024 430,183.225 		"/>
		<path fill="#FFFFFF" d="M432,183.225c0.334,1.108,0,8.333,0,8.333l4.32-0.892l0.18-11.048L432,183.225z"/>
		<polygon fill="#FFFFFF" points="434,196 434,207 436.5,205 439,194.187 		"/>
		<polygon fill="#FFFFFF" points="428,200 428,207 417.946,209.016 418.779,199.707 		"/>
		<polygon fill="#FFFFFF" points="417.946,213.449 414.772,223.106 422.973,222.188 424.39,211.875 		"/>
		<polygon fill="#FFFFFF" points="428,210.929 426.167,220.74 430,218.404 432,207.994 		"/>
		<path fill="#FFFFFF" d="M434.642,209.277c0.025,1.39,0,10.195,0,10.195L439,217.49v-8.475L434.642,209.277z"/>
		<polygon fill="#FFFFFF" points="414.772,228.176 422.334,225.969 419.581,236.582 413,237.66 		"/>
		<polygon fill="#FFFFFF" points="424.693,225.352 436,223.106 436,234 423,234 		"/>
		<rect x="428" y="237" fill="#FFFFFF" width="8" height="8"/>
		<polygon fill="#FFFFFF" points="422,238 422,246 410.766,248.774 413,237.66 		"/>
		<path fill="#FFFFFF" d="M410.25,253.625c0,0-1.249,9.569-0.416,9.639c0.833,0.07,6.549-3.314,6.549-3.314l1.284-9.949
			L410.25,253.625z"/>
		<polygon fill="#FFFFFF" points="422,250 422.973,258.5 430,255.56 429.5,247.973 		"/>
	</g>
	<g id="Layer_12">
		<polygon fill="#C1BCBF" points="383,112 383,164 404.25,132.586 410.125,114.186 404.188,92.969 		"/>
		<polygon fill="#FDF001" points="428.403,100.237 410.25,114.186 404.5,132.586 403.584,167.872 427.897,139.125 433.976,119.316 
					"/>
		<line fill="none" stroke="#808080" stroke-miterlimit="10" x1="396.875" y1="114.186" x2="383.5" y2="164"/>
		<line fill="none" stroke="#808080" stroke-miterlimit="10" x1="417.946" y1="120.434" x2="403.584" y2="167.872"/>
	</g>
</g>
</svg>
