<?xml version="1.0" encoding="utf-8"?>
<!-- Generator: Adobe Illustrator 16.0.0, SVG Export Plug-In . SVG Version: 6.00 Build 0)  -->
<!DOCTYPE svg PUBLIC "-//W3C//DTD SVG 1.1//EN" "http://www.w3.org/Graphics/SVG/1.1/DTD/svg11.dtd">
<svg version="1.1" id="Layer_2" xmlns="http://www.w3.org/2000/svg" xmlns:xlink="http://www.w3.org/1999/xlink" x="0px" y="0px"
	 width="50px" height="50px" viewBox="0 0 50 50" enable-background="new 0 0 50 50" xml:space="preserve">
<polygon fill="#999999" points="17.711,41.958 17.711,25.701 0.711,22.816 0.711,40.361 "/>
<polygon fill="#666666" points="17.711,25.701 22.1,21.194 22.044,38.095 17.711,41.958 "/>
<polyline fill="#B3B3B3" points="1.272,22.816 17.819,25.701 22.153,21.194 6.786,19.408 "/>
<polygon fill="#666666" points="28.982,38.221 28.679,21.207 33.711,24.268 33.711,41.938 "/>
<path fill="#999999" d="M33.711,41.958V24.25l14.326-1.77c0,0-0.126,17.913-0.038,18.089C48.088,40.746,33.711,41.958,33.711,41.958
	z"/>
<polygon fill="#B3B3B3" points="28.789,21.207 33.858,24.25 48.11,22.479 42.639,19.055 "/>
<path fill="#808080" d="M16.319,30.25c0.096-0.145-0.532-3.338-0.532-3.338l-5.091-0.823c0,0-0.203,4.354,0,4.403
	C10.9,30.54,16.319,30.25,16.319,30.25z"/>
<polygon fill="#808080" points="18.642,29.862 18.399,26.959 20.673,24.056 21.205,28.292 "/>
<path fill="#808080" d="M6.545,33.539C6.69,33.491,8.771,39.2,8.771,39.2l8.757,0.968l3.508-2.798l0.168-4.782h-0.532l-0.483,4.177
	l-2.614,1.424l-6.879-0.897l-2.564-4.173L6.545,33.539z"/>
<path fill="#808080" d="M34.711,26.523l4.5-0.677c0,0,0.127,2.903,0.025,3.048c-0.101,0.146-4.525,0.968-4.525,0.968V26.523z"/>
<polygon fill="#808080" points="32.711,26.427 32.711,29.62 29.711,26.959 29.711,24.395 "/>
<polygon fill="#808080" points="29.63,33.975 30.003,37.555 33.635,40.604 41.259,39.435 42.712,34.588 40.753,34.588 
	40.136,38.225 33.64,39.052 31.205,37.094 30.593,33.744 "/>
<line fill="none" stroke="#808080" stroke-miterlimit="10" x1="12.061" y1="22.479" x2="10.842" y2="19.879"/>
<line fill="none" stroke="#808080" stroke-miterlimit="10" x1="38.45" y1="21.849" x2="36.562" y2="19.999"/>
<path fill="#FFFB7B" d="M16.464,30.104c0.097-0.146-0.532-3.339-0.532-3.339l-5.09-0.822c0,0-0.204,4.354,0,4.403
	S16.464,30.104,16.464,30.104z"/>
<polygon fill="#FFFB7B" points="18.787,29.717 18.544,26.814 20.819,23.911 21.351,28.147 "/>
<path fill="#FFFB7B" d="M6.69,33.394c0.146-0.048,2.226,5.661,2.226,5.661l8.757,0.968l3.508-2.725l0.169-4.71h-0.532l-0.483,4.104
	l-2.615,1.387l-6.879-0.915l-2.565-4.183L6.69,33.394z"/>
<path fill="#FFFB7B" d="M34.711,26.379l4.572-0.678c0,0,0.09,2.903-0.011,3.048c-0.101,0.146-4.562,0.968-4.562,0.968V26.379z"/>
<polygon fill="#FFFB7B" points="32.711,26.282 32.711,29.475 29.711,26.814 29.711,24.25 "/>
<polygon fill="#FFFB7B" points="29.775,33.83 30.146,37.41 33.781,40.458 41.403,39.362 42.857,34.588 40.898,34.588 40.28,38.152 
	33.786,38.942 31.35,36.966 30.737,33.608 "/>
<line fill="none" stroke="#FFFB7B" stroke-miterlimit="10" x1="12.061" y1="22.479" x2="12.863" y2="14.963"/>
<line fill="none" stroke="#FFFB7B" stroke-miterlimit="10" x1="38.45" y1="21.849" x2="36.316" y2="14.622"/>
<circle fill="#FFFB7B" cx="12.863" cy="14.963" r="0.749"/>
<circle fill="#FFFB7B" cx="36.316" cy="14.622" r="0.775"/>
<g>
	<path fill="none" stroke="#FFFB7B" stroke-miterlimit="10" d="M30.592,20.963c-2.132-1.928-3.241-4.885-2.671-7.917
		c0.723-3.863,3.942-6.625,7.678-6.938"/>
	<path fill="none" stroke="#FFFB7B" stroke-miterlimit="10" d="M35.151,0.889c-6.021,0.508-11.21,4.965-12.378,11.192
		c-0.918,4.896,0.875,9.672,4.321,12.782"/>
	<path fill="none" stroke="#FFFB7B" stroke-miterlimit="10" d="M33.772,17.417c-0.936-0.854-1.422-2.156-1.171-3.492
		c0.32-1.712,1.749-2.936,3.405-3.071"/>
	<path fill="none" stroke="#FFFB7B" stroke-miterlimit="10" d="M35.599,6.108c-3.735,0.313-6.955,3.075-7.678,6.938
		c-0.57,3.032,0.539,5.989,2.671,7.917"/>
	<path fill="none" stroke="#FFFB7B" stroke-miterlimit="10" d="M36.007,10.854c-1.656,0.135-3.085,1.358-3.405,3.071
		c-0.251,1.335,0.235,2.638,1.171,3.492"/>
</g>
<g>
	<path fill="none" stroke="#FFFB7B" stroke-miterlimit="10" d="M18.902,21.014c2.058-2.006,3.055-5.003,2.373-8.011
		c-0.87-3.833-4.191-6.472-7.935-6.645"/>
	<path fill="none" stroke="#FFFB7B" stroke-miterlimit="10" d="M13.591,1.125c6.037,0.281,11.388,4.54,12.79,10.719
		c1.102,4.857-0.511,9.698-3.838,12.934"/>
	<path fill="none" stroke="#FFFB7B" stroke-miterlimit="10" d="M15.591,17.59c0.902-0.888,1.339-2.208,1.039-3.534
		c-0.386-1.698-1.859-2.867-3.519-2.94"/>
	<path fill="none" stroke="#FFFB7B" stroke-miterlimit="10" d="M13.34,6.358c3.744,0.172,7.065,2.811,7.935,6.645
		c0.682,3.008-0.315,6.005-2.373,8.011"/>
	<path fill="none" stroke="#FFFB7B" stroke-miterlimit="10" d="M13.111,11.116c1.66,0.073,3.133,1.242,3.519,2.94
		c0.3,1.326-0.137,2.646-1.039,3.534"/>
</g>
</svg>
