<?xml version="1.0" encoding="utf-8"?>
<!-- Generator: Adobe Illustrator 16.0.0, SVG Export Plug-In . SVG Version: 6.00 Build 0)  -->
<!DOCTYPE svg PUBLIC "-//W3C//DTD SVG 1.1//EN" "http://www.w3.org/Graphics/SVG/1.1/DTD/svg11.dtd">
<svg version="1.1" id="Layer_1" xmlns="http://www.w3.org/2000/svg" xmlns:xlink="http://www.w3.org/1999/xlink" x="0px" y="0px"
	 width="50px" height="50px" viewBox="0 0 50 50" enable-background="new 0 0 50 50" xml:space="preserve">
<g id="Layer_2">
	<polygon fill="#E0D1D9" points="17.711,41.958 17.711,25.701 0.711,22.816 0.711,40.361 	"/>
	<polygon fill="#C1BCBF" points="17.711,25.701 22.1,21.194 22.044,38.095 17.711,41.958 	"/>
	<polyline fill="#E6E6E6" points="1.272,22.816 17.819,25.701 22.153,21.194 6.786,19.408 	"/>
	<polygon fill="#C1BCBF" points="28.982,38.221 28.68,21.207 33.711,24.268 33.711,41.938 	"/>
	<path fill="#E0D1D9" d="M33.711,41.958V24.25l14.326-1.77c0,0-0.126,17.913-0.038,18.088
		C48.088,40.746,33.711,41.958,33.711,41.958z"/>
	<polygon fill="#E6E6E6" points="28.789,21.207 33.857,24.25 48.109,22.479 42.639,19.055 	"/>
	<path fill="#808080" d="M16.319,30.25c0.096-0.145-0.532-3.338-0.532-3.338l-5.091-0.823c0,0-0.203,4.354,0,4.403
		C10.9,30.54,16.319,30.25,16.319,30.25z"/>
	<polygon fill="#808080" points="18.642,29.861 18.399,26.959 20.673,24.056 21.205,28.292 	"/>
	<path fill="#808080" d="M6.545,33.539C6.69,33.491,8.771,39.2,8.771,39.2l8.757,0.968l3.508-2.798l0.168-4.782h-0.532l-0.483,4.178
		l-2.614,1.424l-6.879-0.896L8.132,33.12L6.545,33.539z"/>
	<path fill="#808080" d="M34.711,26.523l4.5-0.679c0,0,0.127,2.903,0.025,3.05c-0.103,0.146-4.525,0.967-4.525,0.967V26.523z"/>
	<polygon fill="#808080" points="32.711,26.427 32.711,29.62 29.711,26.959 29.711,24.395 	"/>
	<polygon fill="#808080" points="29.63,33.975 30.003,37.555 33.635,40.604 41.259,39.436 42.712,34.588 40.753,34.588 
		40.137,38.225 33.641,39.052 31.205,37.094 30.593,33.744 	"/>
	<line fill="none" stroke="#808080" stroke-miterlimit="10" x1="12.061" y1="22.479" x2="10.842" y2="19.879"/>
	<line fill="none" stroke="#808080" stroke-miterlimit="10" x1="38.45" y1="21.849" x2="36.562" y2="19.999"/>
	<path fill="#EB5094" d="M16.464,30.104c0.097-0.146-0.532-3.338-0.532-3.338l-5.09-0.822c0,0-0.204,4.354,0,4.402
		C11.046,30.395,16.464,30.104,16.464,30.104z"/>
	<polygon fill="#EB5094" points="18.787,29.717 18.544,26.814 20.819,23.911 21.351,28.146 	"/>
	<path fill="#EB5094" d="M6.69,33.395c0.146-0.049,2.226,5.66,2.226,5.66l8.757,0.969l3.508-2.726l0.169-4.71h-0.532l-0.483,4.104
		L17.72,38.08l-6.879-0.915L8.276,32.98L6.69,33.395z"/>
	<path fill="#EB5094" d="M34.711,26.379l4.572-0.678c0,0,0.09,2.902-0.012,3.048s-4.562,0.968-4.562,0.968L34.711,26.379
		L34.711,26.379z"/>
	<polygon fill="#EB5094" points="32.711,26.282 32.711,29.475 29.711,26.814 29.711,24.25 	"/>
	<polygon fill="#EB5094" points="29.775,33.83 30.146,37.41 33.781,40.458 41.402,39.361 42.857,34.588 40.898,34.588 
		40.279,38.152 33.786,38.941 31.35,36.966 30.736,33.607 	"/>
	<line fill="none" stroke="#FFFB7B" stroke-miterlimit="10" x1="12.061" y1="22.479" x2="12.863" y2="14.963"/>
	<line fill="none" stroke="#FFFB7B" stroke-miterlimit="10" x1="38.45" y1="21.849" x2="36.316" y2="14.622"/>
	<circle fill="#FFFB7B" cx="12.863" cy="14.963" r="1.202"/>
	<circle fill="#FFFB7B" cx="36.316" cy="14.622" r="1.291"/>
	<g opacity="0.8">
		<path fill="none" stroke="#FFFB7B" stroke-linecap="round" stroke-miterlimit="10" d="M30.592,20.963
			c-2.132-1.928-3.24-4.885-2.671-7.917c0.724-3.863,3.942-6.625,7.679-6.938"/>
		<path fill="none" stroke="#FFFB7B" stroke-linecap="round" stroke-miterlimit="10" d="M35.15,0.889
			C29.13,1.397,23.941,5.854,22.773,12.081c-0.918,4.896,0.875,9.672,4.321,12.782"/>
		<path fill="none" stroke="#FFFB7B" stroke-linecap="round" stroke-miterlimit="10" d="M33.771,17.417
			c-0.937-0.854-1.422-2.156-1.17-3.492c0.318-1.712,1.748-2.936,3.403-3.071"/>
		<path fill="none" stroke="#FFFB7B" stroke-linecap="round" stroke-miterlimit="10" d="M35.6,6.108
			c-3.736,0.313-6.955,3.075-7.679,6.938c-0.569,3.032,0.539,5.989,2.671,7.917"/>
		<path fill="none" stroke="#FFFB7B" stroke-linecap="round" stroke-miterlimit="10" d="M36.007,10.854
			c-1.655,0.135-3.085,1.358-3.405,3.071c-0.25,1.335,0.235,2.638,1.172,3.492"/>
	</g>
	<g opacity="0.8">
		<path fill="none" stroke="#FFFB7B" stroke-linecap="round" stroke-miterlimit="10" d="M18.902,21.014
			c2.058-2.006,3.055-5.003,2.373-8.011c-0.87-3.833-4.191-6.472-7.935-6.645"/>
		<path fill="none" stroke="#FFFB7B" stroke-linecap="round" stroke-miterlimit="10" d="M13.591,1.125
			c6.037,0.281,11.388,4.54,12.79,10.719c1.102,4.857-0.511,9.698-3.838,12.934"/>
		<path fill="none" stroke="#FFFB7B" stroke-linecap="round" stroke-miterlimit="10" d="M15.591,17.59
			c0.902-0.888,1.339-2.208,1.039-3.534c-0.386-1.698-1.859-2.867-3.519-2.94"/>
		<path fill="none" stroke="#FFFB7B" stroke-linecap="round" stroke-miterlimit="10" d="M13.34,6.358
			c3.744,0.172,7.065,2.811,7.935,6.645c0.682,3.008-0.315,6.005-2.373,8.011"/>
		<path fill="none" stroke="#FFFB7B" stroke-linecap="round" stroke-miterlimit="10" d="M13.111,11.116
			c1.66,0.073,3.133,1.242,3.519,2.94c0.3,1.326-0.137,2.646-1.039,3.534"/>
	</g>
</g>
</svg>
